<svg
    xmlns="http://www.w3.org/2000/svg"
    viewBox="0 0 950 590"
    id="vector">
    <g id="group">
        <g id="vector_1">
            <g
                id="wrapper"
                transform="translate(130 -380) scale(0.25 0.25)">
                <path
                    id="path_10"
                    d="M 782.592 1466.82 L 774.144 1466.244 L 765.888 1465.284 L 749.184 1461.828 L 732.672 1457.412 L 717.312 1451.844 L 702.528 1445.316 L 688.512 1437.636 L 675.264 1428.996 L 662.784 1419.204 L 651.072 1408.452 L 645.888 1403.076 L 640.704 1397.316 L 636.096 1391.556 L 631.872 1385.604 L 627.456 1379.076 L 623.616 1372.548 L 619.392 1364.868 L 615.552 1357.188 L 610.944 1347.396 L 606.912 1337.22 L 603.456 1327.428 L 600.576 1317.444 L 598.464 1307.46 L 596.736 1297.284 L 595.392 1286.916 L 594.816 1276.548 L 594.816 1263.108 L 595.2 1258.884 L 595.584 1254.852 L 596.16 1250.628 L 596.928 1245.636 L 597.888 1240.836 L 601.536 1225.668 L 606.144 1210.692 L 610.176 1200.132 L 614.592 1189.956 L 623.616 1173.06 L 634.176 1156.932 L 643.392 1145.412 L 653.184 1134.66 L 663.168 1125.636 L 673.92 1117.188 L 685.056 1109.892 L 704.448 1099.524 L 724.608 1091.076 L 745.344 1084.74 L 766.464 1080.516 L 779.328 1079.172 L 792.192 1078.98 L 805.056 1079.94 L 821.76 1082.436 L 838.08 1086.468 L 854.208 1091.652 L 869.76 1097.988 L 884.544 1105.668 L 898.752 1114.308 L 911.616 1123.716 L 923.52 1134.276 L 929.664 1140.612 L 935.424 1147.14 L 940.8 1153.668 L 945.792 1160.58 L 950.592 1168.068 L 955.008 1175.556 L 959.424 1184.388 L 963.648 1193.22 L 966.144 1198.596 L 968.448 1203.972 L 969.984 1208.196 L 971.712 1212.42 L 973.056 1216.26 L 974.208 1220.292 L 975.552 1224.9 L 976.704 1229.508 L 978.048 1235.46 L 979.392 1241.22 L 980.16 1245.444 L 980.928 1249.668 L 981.312 1253.7 L 981.696 1257.732 L 982.08 1262.916 L 982.272 1268.1 L 982.272 1275.204 L 982.08 1282.116 L 981.696 1288.068 L 981.12 1294.212 L 980.16 1300.356 L 979.008 1306.308 L 977.472 1313.22 L 975.744 1320.132 L 970.752 1335.876 L 964.608 1351.236 L 957.504 1365.828 L 949.248 1379.652 L 940.224 1392.516 L 930.24 1404.612 L 919.68 1414.98 L 908.352 1424.58 L 900.672 1429.956 L 892.8 1435.14 L 884.352 1440.132 L 875.712 1444.74 L 866.88 1448.964 L 858.048 1452.612 L 849.408 1455.876 L 840.768 1458.756 L 830.976 1461.252 L 820.992 1463.364 L 811.2 1465.092 L 801.408 1466.052 L 792 1466.628 L 782.592 1466.82 M 356.16 1466.82 L 350.976 1466.82 L 345.6 1466.628 L 328.32 1464.324 L 311.424 1460.868 L 294.912 1456.068 L 278.784 1450.116 L 263.424 1442.628 L 248.64 1434.18 L 234.816 1424.388 L 221.76 1413.444 L 213.12 1405.188 L 205.44 1395.972 L 197.568 1385.22 L 190.272 1373.892 L 183.552 1361.604 L 177.408 1348.932 L 172.416 1336.452 L 168.192 1323.588 L 165.696 1314.18 L 163.776 1304.58 L 162.24 1294.98 L 161.088 1285.188 L 160.512 1275.78 L 160.512 1266.564 L 160.896 1258.116 L 162.048 1250.052 L 165.312 1233.732 L 169.728 1217.988 L 174.912 1202.82 L 181.248 1188.228 L 188.544 1174.596 L 196.8 1161.54 L 205.824 1149.444 L 215.808 1138.116 L 219.072 1134.852 L 222.144 1131.78 L 225.216 1128.9 L 228.096 1126.404 L 231.168 1123.716 L 234.432 1121.412 L 238.08 1118.724 L 241.728 1116.036 L 252.48 1109.124 L 263.808 1102.788 L 275.328 1097.22 L 287.232 1092.228 L 299.136 1088.004 L 311.232 1084.548 L 322.944 1082.052 L 334.848 1080.324 L 336.192 1080.132 L 337.536 1079.94 L 338.88 1079.748 L 340.224 1079.556 L 341.376 1079.556 L 342.528 1079.364 L 343.104 1079.364 L 343.68 1079.172 L 346.752 1078.98 L 349.632 1078.788 L 355.2 1078.98 L 360.768 1079.172 L 366.528 1079.556 L 372.096 1079.94 L 375.936 1080.324 L 379.776 1080.9 L 395.136 1084.164 L 410.304 1088.196 L 424.512 1093.38 L 438.336 1099.332 L 451.584 1106.244 L 464.064 1114.116 L 476.352 1122.948 L 487.872 1132.74 L 497.664 1142.532 L 506.304 1153.284 L 518.208 1171.14 L 528.384 1189.956 L 532.416 1198.98 L 536.064 1208.196 L 540.864 1222.788 L 544.512 1237.572 L 545.472 1242.564 L 546.432 1247.556 L 547.008 1251.588 L 547.392 1255.62 L 547.776 1259.844 L 547.968 1263.876 L 548.16 1269.444 L 548.16 1274.82 L 547.968 1280.58 L 547.776 1286.34 L 547.584 1290.756 L 547.008 1295.172 L 546.24 1299.78 L 545.28 1304.58 L 543.744 1311.108 L 542.208 1317.636 L 538.176 1331.268 L 533.376 1344.516 L 527.616 1357.188 L 521.088 1369.668 L 513.984 1381.38 L 505.92 1392.516 L 497.472 1402.884 L 488.256 1412.484 L 479.04 1420.74 L 469.056 1428.228 L 457.728 1435.716 L 446.016 1442.436 L 433.536 1448.388 L 420.672 1453.764 L 408.192 1458.18 L 395.328 1461.636 L 388.608 1462.98 L 381.888 1464.324 L 375.168 1465.284 L 368.64 1466.052 L 362.496 1466.628 L 356.16 1466.82 M 367.104 1482.564 L 379.2 1481.604 L 391.296 1479.876 L 403.776 1477.38 L 416.064 1474.308 L 427.584 1470.276 L 439.104 1465.668 L 450.24 1460.292 L 460.992 1454.148 L 472.128 1447.044 L 482.688 1439.172 L 486.72 1435.908 L 490.56 1432.644 L 495.936 1427.652 L 501.12 1422.66 L 506.304 1417.476 L 511.296 1412.292 L 514.752 1408.644 L 517.824 1404.996 L 526.272 1393.668 L 534.144 1381.956 L 540.864 1370.244 L 546.816 1358.148 L 551.808 1345.668 L 556.032 1332.996 L 559.488 1319.748 L 561.984 1306.308 L 562.752 1300.548 L 563.328 1294.98 L 563.904 1288.644 L 564.288 1282.308 L 564.48 1275.972 L 564.48 1264.26 L 564.288 1258.884 L 564.096 1256.58 L 563.904 1254.468 L 561.984 1237.956 L 558.528 1221.636 L 553.728 1205.508 L 547.584 1190.148 L 545.28 1185.348 L 542.976 1180.548 L 537.792 1170.372 L 532.032 1160.58 L 529.536 1156.74 L 527.04 1152.9 L 535.296 1148.292 L 543.936 1144.836 L 552.96 1142.148 L 562.176 1140.612 L 571.584 1140.036 L 580.992 1140.612 L 590.208 1142.148 L 599.232 1144.836 L 607.872 1148.484 L 616.128 1152.9 L 607.68 1166.532 L 600 1180.548 L 599.232 1182.084 L 598.464 1183.812 L 594.816 1192.068 L 591.36 1200.516 L 590.592 1202.436 L 589.824 1204.356 L 589.248 1206.084 L 588.48 1207.812 L 587.712 1209.156 L 587.136 1210.692 L 582.528 1228.74 L 579.648 1246.98 L 578.496 1265.604 L 578.496 1279.428 L 578.688 1286.148 L 579.072 1292.868 L 579.456 1297.668 L 580.032 1302.468 L 583.296 1319.364 L 587.904 1335.876 L 593.856 1352.004 L 600.768 1367.556 L 609.024 1382.34 L 618.432 1396.548 L 628.992 1409.796 L 640.512 1422.084 L 652.992 1433.604 L 666.432 1443.78 L 680.64 1453.188 L 695.424 1461.252 L 703.488 1464.9 L 711.744 1468.356 L 720.192 1471.428 L 728.64 1474.116 L 737.472 1476.612 L 746.304 1478.532 L 755.328 1480.26 L 764.352 1481.604 L 769.152 1481.988 L 774.144 1482.18 L 782.016 1482.372 L 797.76 1482.372 L 805.824 1482.18 L 810.624 1481.988 L 815.424 1481.604 L 829.248 1479.3 L 843.072 1476.228 L 856.32 1472.196 L 869.376 1467.204 L 882.048 1461.444 L 894.336 1454.724 L 905.856 1447.236 L 916.992 1438.98 L 933.888 1424.196 L 949.44 1407.876 L 962.496 1390.98 L 973.824 1372.74 L 982.848 1353.54 L 989.952 1333.572 L 994.944 1312.26 L 997.824 1290.756 L 998.208 1286.532 L 998.4 1282.5 L 998.4 1276.932 L 998.592 1271.364 L 998.592 1265.796 L 998.4 1260.42 L 998.208 1256.196 L 998.016 1251.972 L 998.016 1250.82 L 997.824 1249.668 L 997.824 1247.556 L 997.632 1246.788 L 997.632 1245.828 L 997.824 1245.828 L 999.744 1245.252 L 1001.856 1244.868 L 1003.968 1244.484 L 1006.272 1244.1 L 1008.768 1243.524 L 1011.456 1242.948 L 1013.952 1242.372 L 1016.64 1241.796 L 1018.752 1241.412 L 1021.056 1241.028 L 1022.976 1240.452 L 1024.896 1240.068 L 1025.28 1240.068 L 1025.472 1238.34 L 1025.472 1231.236 L 1025.28 1228.932 L 1025.088 1217.988 L 1018.176 1216.644 L 1013.76 1215.876 L 1009.536 1214.916 L 1005.12 1213.764 L 1000.512 1212.612 L 996.48 1211.268 L 992.448 1209.924 L 990.912 1209.156 L 989.568 1208.196 L 989.184 1207.812 L 988.992 1207.428 L 988.416 1206.084 L 987.84 1204.932 L 987.072 1203.396 L 986.496 1201.86 L 985.92 1200.324 L 985.152 1198.596 L 981.696 1189.572 L 977.472 1180.932 L 972.864 1171.908 L 967.68 1163.076 L 962.112 1154.436 L 955.968 1145.988 L 949.824 1138.116 L 943.296 1130.628 L 932.16 1119.3 L 920.064 1108.932 L 907.392 1099.524 L 893.952 1091.076 L 879.936 1083.588 L 865.344 1077.252 L 850.176 1072.068 L 834.816 1067.844 L 819.072 1064.964 L 803.328 1063.236 L 787.392 1062.66 L 771.456 1063.236 L 755.904 1065.156 L 740.352 1068.228 L 725.184 1072.452 L 710.208 1077.828 L 703.68 1080.708 L 696.96 1083.78 L 690.048 1087.428 L 683.328 1091.268 L 676.416 1095.3 L 669.888 1099.716 L 663.744 1103.94 L 657.6 1108.548 L 653.952 1111.62 L 650.304 1114.692 L 645.888 1118.724 L 641.664 1122.756 L 637.248 1127.172 L 633.216 1131.396 L 629.76 1135.044 L 626.688 1138.884 L 626.304 1139.076 L 626.112 1139.268 L 617.088 1134.084 L 607.488 1129.668 L 597.504 1126.404 L 587.136 1124.292 L 576.768 1123.14 L 566.208 1123.14 L 555.648 1124.292 L 545.472 1126.404 L 535.488 1129.668 L 525.888 1134.084 L 516.672 1139.268 L 507.648 1129.092 L 498.048 1119.492 L 484.8 1107.972 L 470.4 1097.412 L 455.232 1088.388 L 439.488 1080.516 L 422.976 1073.988 L 406.272 1068.996 L 388.992 1065.348 L 371.712 1063.236 L 354.24 1062.66 L 347.328 1062.66 L 344.832 1062.852 L 342.72 1062.852 L 340.416 1063.044 L 338.88 1063.236 L 337.344 1063.236 L 321.792 1065.348 L 306.624 1068.42 L 291.264 1072.644 L 276.288 1078.02 L 261.888 1084.164 L 248.064 1091.46 L 235.2 1099.332 L 223.104 1107.972 L 219.264 1111.236 L 215.424 1114.692 L 210.432 1119.684 L 205.248 1124.676 L 200.256 1130.052 L 195.456 1135.236 L 192 1139.268 L 188.928 1143.3 L 184.512 1149.252 L 180.48 1155.396 L 176.256 1162.116 L 172.224 1169.028 L 168.384 1175.94 L 164.736 1183.044 L 161.856 1189.572 L 158.976 1196.292 L 158.4 1197.636 L 157.824 1198.98 L 157.248 1200.132 L 156.672 1201.476 L 156.096 1202.436 L 155.52 1203.588 L 155.136 1203.972 L 154.752 1204.548 L 153.024 1206.084 L 150.912 1207.044 L 145.92 1208.964 L 141.12 1210.692 L 135.552 1212.42 L 129.984 1214.148 L 124.8 1215.3 L 119.616 1216.452 L 118.464 1216.644 L 117.312 1216.836 L 116.16 1217.028 L 115.008 1217.22 L 114.048 1217.412 L 113.088 1217.604 L 112.512 1217.796 L 112.128 1217.796 L 111.552 1217.988 L 111.168 1218.372 L 110.784 1218.948 L 110.784 1219.524 L 110.592 1220.676 L 110.592 1236.228 L 110.784 1237.572 L 111.168 1238.916 L 111.552 1239.876 L 112.128 1240.26 L 113.28 1240.644 L 114.432 1240.836 L 116.16 1240.836 L 117.696 1241.22 L 121.344 1241.988 L 124.8 1242.756 L 128.64 1243.716 L 132.288 1244.676 L 135.36 1245.444 L 138.432 1246.404 L 144.768 1248.516 L 144.768 1270.98 L 144.96 1277.508 L 144.96 1287.684 L 145.152 1291.524 L 145.344 1294.404 L 145.536 1297.284 L 145.92 1300.548 L 146.496 1303.812 L 148.992 1316.868 L 152.064 1329.732 L 155.712 1341.828 L 160.128 1353.732 L 165.312 1365.06 L 171.264 1376.004 L 177.984 1386.948 L 185.472 1397.508 L 196.416 1410.948 L 208.128 1423.62 L 220.416 1434.756 L 233.664 1444.932 L 247.488 1453.956 L 261.888 1461.828 L 277.056 1468.548 L 292.608 1473.924 L 304.128 1476.996 L 316.032 1479.492 L 328.704 1481.22 L 341.376 1482.372 L 354.24 1482.756 L 367.104 1482.564"
                    fill="#000000"
                    stroke="#000000"
                    stroke-width="1"/>
            </g>
            <g
                id="group_11"
                transform="translate(260 200) scale(0.15 0.15)">
                <path
                    id="path_14"
                    d="M 427.898 486.201 C 389.396 478.316 348.655 486.314 311.546 509.046 C 274.437 531.773 242.838 568.086 221.296 612.745 C 199.758 657.409 189.367 708.161 191.624 757.693 C 193.881 807.224 208.67 853.036 233.863 888.517 C 259.056 924.001 293.374 947.367 331.876 955.243 C 370.378 963.128 411.119 955.13 448.228 932.402 C 485.337 909.67 516.936 873.357 538.478 828.698 C 560.016 784.039 570.407 733.282 568.15 683.751 C 565.892 634.22 551.104 588.412 525.911 552.927 C 500.718 517.447 466.4 494.081 427.898 486.201 Z"
                    fill="#ffffff"
                    stroke="#000000"
                    stroke-width="1"/>
            </g>
            <g
                id="group_10"
                transform="translate(170 200) scale(0.15 0.15)">
                <path
                    id="path_8"
                    d="M 427.898 486.201 C 389.396 478.316 348.655 486.314 311.546 509.046 C 274.437 531.774 242.838 568.086 221.296 612.746 C 199.758 657.409 189.367 708.162 191.624 757.693 C 193.881 807.224 208.67 853.037 233.863 888.517 C 259.056 924.002 293.374 947.367 331.876 955.243 C 370.378 963.128 411.119 955.13 448.228 932.402 C 485.337 909.67 516.936 873.358 538.478 828.699 C 560.016 784.04 570.407 733.282 568.15 683.751 C 565.892 634.22 551.104 588.412 525.911 552.927 C 500.718 517.447 466.4 494.081 427.898 486.201 Z"
                    fill="#ffffff"
                    stroke="#000000"
                    stroke-width="1"
                    stroke-linecap="square"
                    fill-rule="evenodd"/>
            </g>
            <g
                id="wrapper_3"
                transform="translate(160 40) scale(0.2 0.2)">
                <g id="group_3">
                    <path
                        id="path_3"
                        d="M 946.176 1058.628 L 948.672 1057.476 L 950.208 1056.516 L 951.36 1054.98 L 952.128 1053.252 L 952.128 1051.524 L 951.744 1049.604 L 950.784 1048.068 L 939.456 1035.78 L 927.552 1024.452 L 914.688 1013.892 L 901.248 1004.292 L 887.04 995.652 L 872.448 987.78 L 857.088 981.252 L 841.536 975.492 L 825.6 970.884 L 809.472 967.428 L 792.96 965.124 L 776.448 963.972 L 759.936 963.78 L 743.232 964.932 L 726.912 967.044 L 710.592 970.308 L 694.656 974.724 L 678.912 980.292 L 675.648 985.476 L 673.536 991.236 L 672.576 997.188 L 672.576 1003.332 L 673.92 1009.284 L 676.224 1014.852 L 677.568 1016.388 L 679.296 1017.54 L 681.216 1017.924 L 683.328 1017.732 L 700.8 1013.316 L 718.656 1009.86 L 736.512 1007.364 L 754.56 1005.828 L 772.8 1005.636 L 790.848 1006.212 L 808.896 1007.94 L 826.752 1010.82 L 844.416 1014.66 L 861.888 1019.46 L 878.976 1025.412 L 895.68 1032.324 L 912.192 1040.004 L 927.936 1048.836 L 943.296 1058.436 L 944.256 1058.82 L 945.216 1059.012 L 946.176 1058.628 M 206.4 1058.82 L 207.36 1058.436 L 222.72 1048.836 L 238.464 1040.004 L 254.784 1032.324 L 271.68 1025.412 L 288.768 1019.46 L 306.24 1014.66 L 323.904 1010.82 L 341.76 1007.94 L 359.808 1006.212 L 377.856 1005.636 L 396.096 1005.828 L 414.144 1007.364 L 432 1009.86 L 449.856 1013.316 L 467.328 1017.732 L 469.44 1017.924 L 471.36 1017.54 L 473.088 1016.388 L 474.432 1014.852 L 476.736 1009.284 L 478.08 1003.332 L 478.08 997.188 L 477.12 991.236 L 474.816 985.476 L 471.744 980.292 L 456 974.724 L 440.064 970.308 L 423.744 967.044 L 407.232 964.932 L 390.72 963.78 L 374.208 963.972 L 357.696 965.124 L 341.184 967.428 L 325.056 970.884 L 309.12 975.492 L 293.376 981.252 L 278.208 987.78 L 263.616 995.652 L 249.408 1004.292 L 235.968 1013.892 L 223.104 1024.452 L 211.2 1035.78 L 199.872 1048.068 L 198.912 1049.604 L 198.336 1051.524 L 198.528 1053.252 L 199.296 1054.98 L 200.448 1056.516 L 201.984 1057.476 L 204.288 1058.628 L 205.44 1059.012 L 206.4 1058.82"
                        fill="#000000"
                        stroke-width="1.333333015"/>
                </g>
            </g>
            <g
                id="wrapper_4"
                transform="translate(90 120) scale(0.15 0.15)">
                <g id="group_4">
                    <path
                        id="path_4"
                        d="M 936.576 1351.812 L 932.544 1350.852 L 928.704 1348.548 L 925.632 1345.284 L 923.328 1341.06 L 921.984 1336.26 L 915.456 1336.644 L 908.736 1335.876 L 902.4 1334.148 L 896.448 1331.076 L 890.688 1327.044 L 885.696 1322.052 L 881.088 1316.292 L 877.44 1309.764 L 874.368 1302.468 L 872.256 1294.788 L 871.104 1286.916 L 870.72 1278.66 L 871.488 1270.596 L 872.832 1262.532 L 875.328 1254.66 L 878.592 1247.364 L 882.624 1240.644 L 880.896 1238.916 L 879.936 1236.804 L 879.744 1234.5 L 880.32 1232.004 L 881.472 1230.084 L 883.392 1228.548 L 885.696 1227.78 L 888 1227.588 L 890.304 1228.356 L 892.224 1229.892 L 897.792 1225.668 L 903.744 1222.596 L 909.888 1220.484 L 916.224 1219.332 L 922.56 1219.14 L 928.704 1220.1 L 934.848 1222.02 L 940.608 1225.092 L 945.984 1228.932 L 950.784 1233.732 L 955.2 1239.3 L 958.848 1245.636 L 961.728 1252.548 L 963.84 1259.844 L 965.184 1267.332 L 965.568 1275.204 L 965.184 1283.076 L 964.032 1290.948 L 962.112 1298.436 L 959.232 1305.54 L 955.776 1312.26 L 951.552 1318.212 L 953.472 1322.244 L 954.624 1326.852 L 954.816 1331.652 L 954.048 1336.26 L 952.704 1340.676 L 950.4 1344.708 L 947.52 1347.972 L 944.064 1350.276 L 940.416 1351.62 L 936.576 1351.812 M 926.208 1382.916 L 934.464 1380.996 L 942.72 1378.308 L 950.592 1374.468 L 958.08 1369.668 L 965.376 1364.1 L 972.096 1357.572 L 978.24 1350.468 L 984 1342.404 L 988.992 1333.956 L 993.408 1324.932 L 996.864 1315.332 L 999.744 1305.348 L 1001.856 1295.172 L 1003.2 1284.996 L 1003.584 1274.628 L 1003.2 1264.26 L 1002.048 1253.892 L 999.936 1243.908 L 997.248 1234.308 L 993.6 1225.092 L 989.376 1216.26 L 984.384 1208.196 L 978.816 1200.708 L 972.672 1193.988 L 965.952 1188.036 L 958.848 1183.044 L 951.168 1178.82 L 943.296 1175.556 L 935.232 1173.444 L 926.976 1172.292 L 918.528 1172.1 L 910.272 1172.868 L 901.824 1174.788 L 893.76 1177.668 L 885.888 1181.316 L 878.208 1186.116 L 871.104 1191.684 L 864.384 1198.212 L 858.048 1205.508 L 852.48 1213.38 L 847.488 1221.828 L 843.072 1231.044 L 839.424 1240.452 L 836.544 1250.436 L 834.624 1260.612 L 833.28 1270.788 L 832.896 1281.348 L 833.28 1291.716 L 834.432 1301.892 L 836.352 1311.876 L 839.232 1321.476 L 842.688 1330.692 L 847.104 1339.524 L 851.904 1347.588 L 857.664 1355.076 L 863.808 1361.796 L 870.528 1367.748 L 877.632 1372.932 L 885.12 1376.964 L 892.992 1380.228 L 901.248 1382.34 L 909.504 1383.492 L 917.76 1383.684 L 926.208 1382.916"
                        fill="#00a5dd"
                        stroke-width="1.333333015"/>
                </g>
            </g>
            <g
                id="wrapper_5"
                transform="translate(90 120) scale(0.15 0.15)">
                <g id="group_5">
                    <path
                        id="path_5"
                        d="M 921.984 1336.26 L 921.6 1331.652 L 921.984 1327.044 L 923.328 1322.628 L 925.44 1318.788 L 928.128 1315.332 L 931.392 1312.836 L 934.848 1311.3 L 938.688 1310.724 L 942.336 1311.108 L 945.792 1312.644 L 948.864 1314.948 L 951.552 1318.212 L 955.776 1312.26 L 959.232 1305.54 L 962.112 1298.436 L 964.032 1290.948 L 965.184 1283.076 L 965.568 1275.204 L 965.184 1267.332 L 963.84 1259.844 L 961.728 1252.548 L 958.848 1245.636 L 955.2 1239.3 L 950.784 1233.732 L 945.984 1228.932 L 940.608 1225.092 L 934.848 1222.02 L 928.704 1220.1 L 922.56 1219.14 L 916.224 1219.332 L 909.888 1220.484 L 903.744 1222.596 L 897.792 1225.668 L 892.224 1229.892 L 893.76 1232.196 L 894.336 1234.884 L 893.952 1237.188 L 892.992 1239.3 L 891.264 1240.836 L 889.152 1241.988 L 886.848 1242.18 L 884.544 1241.796 L 882.624 1240.644 L 878.592 1247.364 L 875.328 1254.66 L 872.832 1262.532 L 871.488 1270.596 L 870.72 1278.66 L 871.104 1286.916 L 872.256 1294.788 L 874.368 1302.468 L 877.44 1309.764 L 881.088 1316.292 L 885.696 1322.052 L 890.688 1327.044 L 896.448 1331.076 L 902.4 1334.148 L 908.736 1335.876 L 915.456 1336.644 L 921.984 1336.26"
                        fill="#000000"
                        stroke-width="1.333333015"/>
                </g>
            </g>
            <g
                id="wrapper_6"
                transform="translate(282 120) scale(0.15 0.15)">
                <g id="group_6">
                    <path
                        id="path_6"
                        d="M 243.456 1351.812 L 239.424 1350.852 L 235.584 1348.548 L 232.512 1345.284 L 230.208 1341.06 L 228.864 1336.26 L 222.336 1336.644 L 215.616 1335.876 L 209.28 1334.148 L 203.328 1331.076 L 197.568 1327.044 L 192.576 1322.052 L 187.968 1316.292 L 184.32 1309.764 L 181.248 1302.468 L 179.136 1294.788 L 177.984 1286.916 L 177.6 1278.66 L 178.176 1270.596 L 179.712 1262.532 L 182.208 1254.66 L 185.472 1247.364 L 189.504 1240.644 L 187.776 1238.916 L 186.816 1236.804 L 186.624 1234.5 L 187.2 1232.004 L 188.352 1230.084 L 190.272 1228.548 L 192.576 1227.78 L 194.88 1227.588 L 197.184 1228.356 L 199.104 1229.892 L 204.672 1225.668 L 210.624 1222.596 L 216.768 1220.484 L 223.104 1219.332 L 229.44 1219.14 L 235.584 1220.1 L 241.728 1222.02 L 247.488 1225.092 L 252.864 1228.932 L 257.664 1233.732 L 262.08 1239.3 L 265.728 1245.636 L 268.608 1252.548 L 270.72 1259.844 L 272.064 1267.332 L 272.448 1275.204 L 272.064 1283.076 L 270.912 1290.948 L 268.992 1298.436 L 266.112 1305.54 L 262.656 1312.26 L 258.432 1318.212 L 260.352 1322.244 L 261.504 1326.852 L 261.696 1331.652 L 260.928 1336.26 L 259.584 1340.676 L 257.28 1344.708 L 254.4 1347.972 L 250.944 1350.276 L 247.296 1351.62 L 243.456 1351.812 M 233.088 1382.916 L 241.344 1380.996 L 249.408 1378.308 L 257.472 1374.468 L 264.96 1369.668 L 272.256 1364.1 L 278.976 1357.572 L 285.12 1350.468 L 290.88 1342.404 L 295.872 1333.956 L 300.288 1324.932 L 303.744 1315.332 L 306.624 1305.348 L 308.736 1295.172 L 310.08 1284.996 L 310.464 1274.628 L 310.08 1264.26 L 308.928 1253.892 L 306.816 1243.908 L 304.128 1234.308 L 300.48 1225.092 L 296.256 1216.26 L 291.264 1208.196 L 285.696 1200.708 L 279.552 1193.988 L 272.832 1188.036 L 265.728 1183.044 L 258.048 1178.82 L 250.176 1175.556 L 242.112 1173.444 L 233.856 1172.292 L 225.408 1172.1 L 217.152 1172.868 L 208.704 1174.788 L 200.64 1177.668 L 192.768 1181.316 L 185.088 1186.116 L 177.984 1191.684 L 171.264 1198.212 L 164.928 1205.508 L 159.36 1213.38 L 154.368 1221.828 L 149.952 1231.044 L 146.304 1240.452 L 143.424 1250.436 L 141.504 1260.612 L 140.16 1270.788 L 139.776 1281.348 L 140.16 1291.716 L 141.312 1301.892 L 143.232 1311.876 L 146.112 1321.476 L 149.568 1330.692 L 153.792 1339.524 L 158.784 1347.588 L 164.352 1355.076 L 170.688 1361.796 L 177.408 1367.748 L 184.512 1372.932 L 192 1376.964 L 199.872 1380.228 L 208.128 1382.34 L 216.384 1383.492 L 224.64 1383.684 L 233.088 1382.916"
                        fill="#00a5dd"
                        stroke-width="1.333333015"/>
                </g>
            </g>
            <g
                id="wrapper_7"
                transform="translate(282 120) scale(0.15 0.15)">
                <g id="group_7">
                    <path
                        id="path_7"
                        d="M 228.864 1336.26 L 228.48 1331.652 L 228.864 1327.044 L 230.208 1322.628 L 232.32 1318.788 L 235.008 1315.332 L 238.08 1312.836 L 241.728 1311.3 L 245.376 1310.724 L 249.216 1311.108 L 252.672 1312.644 L 255.744 1314.948 L 258.432 1318.212 L 262.656 1312.26 L 266.112 1305.54 L 268.992 1298.436 L 270.912 1290.948 L 272.064 1283.076 L 272.448 1275.204 L 272.064 1267.332 L 270.72 1259.844 L 268.608 1252.548 L 265.728 1245.636 L 262.08 1239.3 L 257.664 1233.732 L 252.864 1228.932 L 247.488 1225.092 L 241.728 1222.02 L 235.584 1220.1 L 229.44 1219.14 L 223.104 1219.332 L 216.768 1220.484 L 210.624 1222.596 L 204.672 1225.668 L 199.104 1229.892 L 200.64 1232.196 L 201.216 1234.884 L 200.832 1237.188 L 199.872 1239.3 L 198.144 1240.836 L 196.032 1241.988 L 193.728 1242.18 L 191.424 1241.796 L 189.504 1240.644 L 185.472 1247.364 L 182.208 1254.66 L 179.712 1262.532 L 178.176 1270.596 L 177.6 1278.66 L 177.984 1286.916 L 179.136 1294.788 L 181.248 1302.468 L 184.32 1309.764 L 187.968 1316.292 L 192.576 1322.052 L 197.568 1327.044 L 203.328 1331.076 L 209.28 1334.148 L 215.616 1335.876 L 222.336 1336.644 L 228.864 1336.26"
                        fill="#000000"
                        stroke-width="1.333333015"/>
                </g>
            </g>
            <g
                id="group_8"
                transform="translate(90 -110) scale(0.4 0.4)">
                <path
                    id="path_9"
                    d="M 132.962 1089.423 C 135.008 1089.933 137.098 1090.307 139.093 1090.976 C 144.646 1092.839 147.022 1097.353 147.715 1102.642 C 148.427 1108.081 148.806 1113.623 148.628 1119.1 C 148.482 1123.617 147.457 1128.132 146.542 1132.591 C 145.755 1136.434 143.618 1139.33 139.683 1140.672 C 138.501 1141.076 137.458 1141.89 136.352 1142.515 C 130.515 1142.421 124.678 1142.328 118.838 1142.234 C 116.165 1141.391 113.492 1140.751 110.812 1142.211 C 106.583 1141.679 102.296 1141.417 98.138 1140.544 C 93.566 1139.583 88.959 1138.443 84.643 1136.698 C 76.806 1133.528 71.793 1127.298 68.733 1119.64 C 66.2 1113.301 64.876 1106.627 64.156 1099.778 C 63.331 1091.933 63.1 1084.087 63.09 1076.233 C 63.032 1025.981 63.028 975.727 63.131 925.474 C 63.138 921.978 62.749 918.513 63.208 914.934 C 64.366 905.857 71.012 897.857 82.234 898.617 C 82.96 898.667 83.695 898.568 84.427 898.539 L 95.977 898.539 C 99.222 899.052 102.514 899.367 105.703 900.121 C 112.42 901.708 115.702 906.772 117.011 912.952 C 117.962 917.446 118.087 922.172 118.107 926.796 C 118.208 950.537 118.155 974.279 118.155 998.023 C 118.155 1021.766 118.202 1045.506 118.105 1069.248 C 118.089 1072.96 118.353 1076.66 118.078 1080.413 C 117.726 1085.185 120.252 1087.592 125.792 1089.411 C 128.181 1089.412 130.572 1089.418 132.962 1089.423 Z"
                    fill="#000000"
                    stroke-width="1"/>
            </g>
            <g
                id="group_9"
                transform="translate(400 -80) scale(0.4 0.4)">
                <path
                    id="path_15"
                    d="M 116.726 898.161 C 121.871 899.514 126.119 902.418 129.783 906.336 C 134.301 911.163 138.008 916.608 140.945 922.592 C 142.741 926.251 144.01 930.101 142.851 934.327 C 142.655 934.67 142.457 935.011 142.259 935.352 C 141.047 937.35 139.837 939.347 138.627 941.345 C 138.384 941.682 138.138 942.022 137.894 942.359 L 137.878 942.381 L 137.08 943.255 L 137.047 943.292 L 136.244 944.139 L 136.206 944.179 C 135.932 944.458 135.661 944.735 135.388 945.014 L 135.355 945.047 C 135.074 945.323 134.792 945.6 134.512 945.877 L 134.491 945.894 C 134.169 946.152 133.844 946.409 133.52 946.665 C 123.066 955.839 112.612 965.012 101.981 974.34 C 106.482 978.256 110.649 981.911 114.849 985.525 C 122.281 991.919 129.739 998.281 137.177 1004.667 C 140.195 1007.257 143.326 1009.723 146.148 1012.528 C 148.35 1014.715 150.317 1017.216 152.091 1019.797 C 154.598 1023.442 154.405 1027.508 152.806 1031.453 C 148.375 1042.397 141.707 1051.484 131.987 1057.919 C 130.986 1058.583 129.749 1058.864 128.619 1059.322 C 126.597 1059.36 124.577 1059.399 122.555 1059.437 C 119.031 1059.043 116.076 1057.368 113.205 1055.281 C 104.271 1048.789 96.041 1041.485 88.801 1032.99 C 88.521 1032.702 88.242 1032.414 87.961 1032.126 L 87.947 1032.112 C 87.668 1031.829 87.389 1031.545 87.111 1031.261 L 87.089 1031.239 C 86.814 1030.957 86.537 1030.674 86.26 1030.392 L 86.234 1030.364 C 85.959 1030.082 85.686 1029.8 85.413 1029.517 L 85.384 1029.486 C 85.111 1029.209 84.836 1028.931 84.561 1028.652 L 84.531 1028.625 C 83.985 1028.276 83.439 1027.928 82.892 1027.578 C 77 1021.792 71.106 1016.008 65.217 1010.216 C 64.31 1009.325 63.435 1008.397 62.546 1007.488 C 62.273 1007.147 61.998 1006.806 61.725 1006.465 C 61.572 1006.828 61.418 1007.193 61.264 1007.558 C 61.198 1017.324 61.239 1027.094 60.999 1036.856 C 60.929 1039.689 60.236 1042.552 59.514 1045.313 C 57.6 1052.63 52.552 1055.945 45.61 1056.733 C 44.255 1056.887 42.929 1057.324 41.587 1057.632 C 36.755 1057.613 31.92 1057.597 27.087 1057.58 C 23.25 1057.599 19.642 1056.928 16.216 1054.856 C 11.645 1052.093 9.414 1047.702 8.941 1042.701 C 8.268 1035.571 8.301 1028.355 8.298 1021.174 C 8.255 961.334 8.268 901.496 8.29 841.656 C 8.29 837.846 8.29 834.013 8.664 830.23 C 9.816 818.613 14.23 815.369 24.215 813.95 C 30.321 813.083 36.485 812.454 42.632 813.846 C 44.658 814.304 46.75 814.526 48.728 815.144 C 56.643 817.615 60.529 822.989 61.015 832.192 C 61.217 835.996 61.169 839.817 61.173 843.628 C 61.208 875.6 61.226 907.571 61.25 939.545 L 61.723 940.623 C 62.003 940.296 62.284 939.972 62.564 939.646 C 71.485 930.919 80.624 922.416 89.236 913.368 C 93.502 908.888 98.542 905.749 103.341 902.152 C 106.095 900.09 109.166 898.828 112.486 898.185 C 113.896 898.181 115.311 898.17 116.726 898.161 Z"
                    fill="#010101"
                    stroke-width="1"/>
                <path
                    id="path_16"
                    d="M 1015.753 993.362 C 1015.573 998.248 1018.16 1001.647 1021.53 1004.461 C 1026.903 1008.947 1033.116 1011.763 1039.903 1012.627 C 1052.654 1014.249 1065.115 1012.678 1077.136 1007.803 C 1078.444 1007.274 1079.754 1006.749 1081.074 1006.263 C 1091.066 1002.599 1096.247 1006.012 1101.556 1013.16 C 1104.965 1017.749 1107.064 1023.152 1108.492 1028.742 C 1110.444 1036.367 1107.214 1044.875 1101.074 1049.603 C 1094.835 1054.41 1087.764 1056.953 1080.259 1058.427 C 1077.932 1058.886 1075.585 1059.219 1073.248 1059.61 C 1071.268 1059.883 1069.29 1060.158 1067.31 1060.431 C 1054.335 1061.383 1041.359 1061.87 1028.388 1060.396 L 1025.809 1060.231 C 1020.25 1060.352 1015.089 1058.35 1010.014 1056.488 C 1001.352 1053.314 993.318 1048.773 986.276 1042.516 C 978.763 1035.839 972.833 1027.91 968.731 1018.519 C 966.447 1013.285 963.666 1008.232 961.904 1002.817 C 959.306 994.831 958.921 986.374 958.402 977.993 C 958.355 977.2 957.964 976.43 957.73 975.649 C 957.72 975.148 957.711 974.646 957.702 974.143 C 957.977 972.49 958.384 970.845 958.503 969.179 C 958.797 965.111 958.582 960.962 959.27 956.974 C 960.109 952.114 961.393 947.289 962.956 942.619 C 967.245 929.804 974.389 918.848 984.137 909.898 C 995.953 899.046 1009.771 892.386 1025.319 889.531 C 1033.375 888.052 1041.469 887.33 1049.611 887.847 C 1064.07 888.763 1077.804 892.434 1089.896 901.083 C 1102.952 910.422 1110.996 923.523 1115.277 939.257 C 1115.543 940.227 1115.578 941.264 1115.717 942.271 C 1115.895 942.608 1116.069 942.946 1116.245 943.283 C 1116.925 949.527 1117.393 955.779 1116.368 962.031 C 1115.316 968.442 1114.179 974.86 1109.999 980.052 C 1105.45 985.703 1100.345 990.522 1092.923 991.632 C 1091.981 991.773 1091.086 992.231 1090.168 992.543 C 1088.206 992.512 1086.243 992.457 1084.283 992.455 C 1062.805 992.449 1041.33 992.425 1019.854 992.515 C 1018.521 992.517 1016.789 991.465 1015.753 993.362 Z M 1014.528 963.662 L 1019.311 963.662 C 1026.634 963.662 1033.956 963.675 1041.276 963.659 C 1045.92 963.648 1050.577 963.781 1055.212 963.508 C 1061.96 963.109 1065.317 958.562 1064.356 951.626 C 1063.452 945.087 1059.617 941.145 1053.89 939.077 C 1040.197 934.131 1021.586 942.973 1016.18 956.978 C 1015.426 958.927 1015.151 961.077 1014.528 963.662 Z M 850.142 1060.244 C 839.481 1057.839 829.506 1054.013 820.094 1047.898 C 810.672 1041.777 803.84 1033.668 798.017 1024.14 C 793.714 1017.098 790.596 1009.541 788.001 1001.733 C 787.019 998.772 787.217 995.375 786.186 992.444 C 784.542 987.763 785.279 982.986 785.009 978.272 C 784.742 973.608 785.248 968.902 785.211 964.216 C 785.152 956.375 786.826 948.79 789.527 941.67 C 794.055 929.724 800.582 919.103 810.135 910.496 C 816.321 904.922 822.844 900.229 830.194 896.606 C 839.161 892.19 848.556 889.502 858.414 888.695 C 864.277 888.215 870.192 887.621 876.045 887.903 C 890.12 888.585 903.692 892.001 915.341 900.443 C 929.834 910.947 939.325 925.217 942.293 943.802 C 943.936 954.096 943.272 963.998 939.75 973.788 C 937.684 979.524 933.898 983.547 929.293 987.043 C 925.558 989.879 921.43 991.582 916.949 992.504 C 909.381 992.484 901.817 992.455 894.25 992.449 C 877.991 992.442 861.731 992.42 845.469 992.506 C 844.336 992.512 842.681 991.377 841.971 993.443 C 842.332 994.91 842.695 996.374 843.055 997.841 C 843.17 998.076 843.286 998.31 843.399 998.545 C 843.59 998.906 843.781 999.269 843.973 999.63 L 843.96 999.992 L 844.277 1000.16 L 844.387 1000.362 C 844.604 1000.69 844.82 1001.018 845.038 1001.346 C 846.19 1002.492 847.339 1003.636 848.489 1004.782 C 848.776 1005.017 849.062 1005.253 849.347 1005.488 L 849.532 1005.603 C 849.744 1005.805 849.955 1006.007 850.17 1006.208 C 855.675 1010.194 861.777 1012.4 868.465 1012.856 C 872.577 1014.066 876.687 1013.857 880.799 1012.845 C 882.112 1012.731 883.426 1012.62 884.737 1012.506 C 886.14 1012.273 887.539 1012.038 888.937 1011.806 C 890.947 1011.413 892.951 1011.019 894.96 1010.625 C 895.49 1010.445 896.023 1010.266 896.559 1010.086 C 898.548 1009.424 900.539 1008.762 902.53 1008.1 C 903.012 1007.864 903.49 1007.626 903.973 1007.389 C 905.837 1006.821 907.722 1006.32 909.561 1005.673 C 916.639 1003.191 922.258 1005.845 926.677 1011.424 C 931.159 1017.086 934.184 1023.702 935.192 1030.969 C 936.346 1039.282 932.604 1045.506 926.378 1050.483 C 920.342 1055.305 913.251 1056.948 906.072 1058.471 C 903.225 1059.074 900.374 1059.643 897.521 1060.228 C 896.377 1060.283 895.233 1060.336 894.091 1060.391 C 883.936 1060.691 873.781 1060.994 863.628 1061.296 C 859.967 1060.955 856.306 1060.614 852.645 1060.275 L 852.658 1060.277 C 851.816 1060.264 850.98 1060.253 850.142 1060.244 Z M 840.928 963.417 C 842.18 963.534 842.858 963.653 843.537 963.653 C 855.505 963.662 867.473 963.666 879.443 963.646 C 880.706 963.644 881.989 963.591 883.228 963.367 C 888.008 962.498 890.575 959.361 890.763 954.285 C 891.038 946.812 886.875 941.107 879.476 938.826 C 865.869 934.633 848.753 942.674 842.89 956.149 C 841.945 958.324 841.617 960.789 840.928 963.417 Z"
                    fill="#020202"
                    stroke-width="1"/>
                <path
                    id="path_17"
                    d="M 517.983 1038.195 C 512.371 1042.442 507.135 1047.442 501.048 1050.742 C 494.212 1054.449 486.816 1057.278 479.033 1058.504 C 478.245 1058.629 477.503 1059.058 476.736 1059.346 C 474.177 1059.657 471.618 1059.967 469.058 1060.279 L 452.932 1060.213 C 436.707 1058.994 422.594 1052.361 409.873 1042.09 C 401.498 1035.329 394.823 1026.942 389.292 1017.685 C 384.472 1009.618 381.198 1000.829 379.608 991.274 C 378.866 986.812 378.871 982.412 378.591 977.995 C 378.314 973.628 378.737 969.217 378.776 964.825 C 378.877 953.63 382.257 943.301 387.288 933.684 C 392.122 924.442 398.347 916.269 406.309 909.429 C 412.384 904.207 418.649 899.406 425.674 895.873 C 435.847 890.758 446.756 888.254 458.04 887.584 L 464.875 887.584 C 477.625 888.494 489.859 891.422 501.092 897.992 C 522.791 910.683 537.733 929.009 543.094 954.683 C 547.252 974.596 545.325 994.044 536.567 1012.475 C 533.282 1019.39 529.126 1025.75 524.099 1031.463 C 523.442 1032.209 522.911 1033.074 522.32 1033.884 C 522.051 1034.18 521.779 1034.473 521.51 1034.766 L 521.486 1034.792 C 521.215 1035.078 520.942 1035.364 520.67 1035.65 L 520.643 1035.677 C 520.371 1035.962 520.098 1036.246 519.825 1036.53 L 519.798 1036.557 C 519.521 1036.838 519.242 1037.12 518.963 1037.401 L 518.941 1037.419 C 518.624 1037.679 518.303 1037.936 517.983 1038.195 Z M 491.306 973.79 C 491.337 955.568 479.246 943.226 461.338 943.197 C 444.721 943.169 432.074 956.371 431.994 973.828 C 431.911 991.593 444.475 1004.887 461.362 1004.903 C 478.362 1004.918 491.276 991.5 491.306 973.79 Z"
                    fill="#020101"
                    stroke-width="1"/>
                <path
                    id="path_18"
                    d="M 710.079 1015.452 C 713.385 1015.447 716.313 1014.372 718.701 1011.969 C 721 1009.653 720.687 1006.903 717.865 1005.27 C 713.839 1002.94 709.48 1001.889 704.915 1001.104 C 697.772 999.878 690.633 998.452 683.767 995.834 C 675.504 992.682 667.504 989.067 660.315 983.684 C 654.01 978.963 649.95 972.426 646.791 965.266 C 645.247 961.767 643.927 958.025 643.309 954.252 C 642.556 949.67 642.583 944.942 642.394 940.273 C 642.255 936.771 641.83 933.176 642.398 929.779 C 643.168 925.16 644.563 920.617 646.083 916.19 C 646.899 913.816 648.432 911.671 649.825 909.551 C 656.645 899.173 666.902 894.45 678.088 891.719 C 684.589 890.131 691.321 889.564 697.952 888.538 C 703.648 888.525 709.346 888.51 715.044 888.497 C 728.211 889.935 740.837 893.462 752.838 899.307 C 757.22 901.441 760.795 904.317 762.463 909.513 C 763.759 913.555 762.498 917.092 761.167 920.427 C 758.661 926.706 755.507 932.642 750.572 937.427 C 746.533 941.343 742.185 942.216 737.154 940.329 C 732.349 938.527 727.589 936.582 722.751 934.883 C 720.153 933.97 717.431 933.447 714.765 932.747 C 709.458 930.952 704.136 931.434 698.81 932.613 C 693.777 932.881 690.732 934.848 689.986 938.315 C 689.377 941.145 691.83 944.678 695.842 946.829 C 700.463 949.305 705.511 950.435 710.554 951.038 C 721.948 952.402 732.765 955.748 743.34 960.188 C 748.821 962.491 753.85 965.382 758.003 969.951 C 763.64 976.158 767.085 983.525 768.702 991.705 C 770.906 1002.853 770.44 1014.048 767.263 1024.971 C 764.025 1036.097 757.764 1044.718 747.686 1050.317 C 740.113 1054.524 732.107 1056.995 723.736 1058.499 C 722.781 1058.671 721.864 1059.051 720.927 1059.333 C 716.743 1059.626 712.56 1060.195 708.382 1060.152 C 700.141 1060.07 691.904 1059.648 683.665 1059.366 L 683.694 1059.37 C 682.847 1059.368 681.996 1059.364 681.149 1059.36 C 667.361 1056.669 654.571 1051.363 642.719 1043.55 C 639.199 1041.227 637.047 1038.217 637.07 1033.653 C 637.098 1029.189 637.461 1024.945 639.49 1020.816 C 641.936 1015.846 644.822 1011.201 647.629 1006.469 C 650.751 1001.2 655.373 1000.151 660.543 1000.666 C 664.952 1001.106 669.084 1002.85 673.077 1004.912 C 678.92 1007.928 684.79 1010.894 690.739 1013.665 C 692.707 1014.581 694.962 1014.832 697.086 1015.388 C 701.409 1016.796 705.743 1016.682 710.079 1015.452 Z"
                    fill="#020202"
                    stroke-width="1"/>
                <path
                    id="path_19"
                    d="M 300.161 834.852 C 303.754 835.818 307.441 836.511 310.915 837.824 C 314.748 839.271 317.641 842.085 318.597 846.411 C 319.339 849.781 320.17 853.219 320.243 856.643 C 320.496 868.477 320.435 880.317 320.494 892.153 C 320.729 892.423 320.962 892.692 321.196 892.962 C 322.289 892.94 323.378 892.919 324.472 892.896 C 327.353 892.654 330.233 892.412 333.111 892.17 C 334.196 892.116 335.282 892.065 336.365 892.014 C 339.207 892.008 342.05 892.003 344.89 891.997 C 348.023 892.553 351.179 893.006 354.286 893.682 C 362.065 895.372 364.842 901.397 365.891 908.71 C 366.905 915.781 367.07 922.861 365.986 929.982 C 365.176 935.297 363.638 940.093 359.273 943.391 C 358.444 944.016 357.46 944.425 356.521 944.876 C 355.17 945.525 353.795 946.119 352.429 946.737 C 352.154 946.735 351.877 946.733 351.602 946.733 L 351.633 946.728 C 345.983 946.781 340.334 946.834 334.684 946.885 C 330.786 946.59 326.891 946.246 322.987 946.046 C 322.17 946.004 321.328 946.489 320.498 946.731 L 320.481 947.617 C 320.456 962.406 320.399 977.198 320.441 991.989 C 320.446 994.165 320.639 996.433 321.257 998.492 C 322.249 1001.796 324.115 1004.452 327.837 1004.848 C 329.298 1005.066 330.757 1005.284 332.218 1005.503 C 333.036 1005.506 333.854 1005.512 334.669 1005.515 C 334.981 1005.517 335.293 1005.521 335.604 1005.525 C 340.756 1005.739 345.913 1005.897 350.583 1008.658 C 353.584 1010.436 355.753 1012.735 356.756 1016.398 C 359.48 1026.36 359.132 1036.288 356.431 1046.076 C 354.693 1052.37 349.928 1055.516 343.9 1056.719 C 342.817 1056.935 341.764 1057.311 340.696 1057.613 L 323.734 1057.591 C 320.894 1057.294 318.05 1056.995 315.21 1056.698 C 300.056 1054.962 286.9 1049.273 277.513 1036.084 C 273.601 1030.588 271.454 1024.298 269.874 1017.768 C 267.696 1008.775 267.76 999.564 267.69 990.387 C 267.58 975.9 267.595 961.413 267.555 946.924 C 266.396 945.215 265.063 946.207 263.763 946.656 L 263.763 946.748 C 260.069 946.755 256.375 946.763 252.681 946.772 C 243.322 945.703 240.409 937.788 240.324 930.987 C 240.233 923.408 240.245 915.823 240.423 908.244 C 240.605 900.458 244.35 892.947 254.479 892.192 C 255.037 892.151 255.589 892.045 256.144 891.97 C 256.701 891.97 257.261 891.972 257.82 891.973 C 260.953 892.423 264.086 892.874 267.672 893.387 C 267.672 891.247 267.663 889.673 267.672 888.096 C 267.747 876.132 267.766 864.167 267.931 852.205 C 267.995 847.585 268.849 843.168 272.257 839.722 C 273.651 838.312 275.11 837.234 277.086 836.884 C 280.505 836.279 283.901 835.532 287.309 834.845 C 291.59 834.847 295.876 834.849 300.161 834.852 Z"
                    fill="#010101"
                    stroke-width="1"/>
            </g>
        </g>
    </g>
</svg>
